<svg xmlns="http://www.w3.org/2000/svg" width="169" height="57" viewBox="0 0 169 57"><defs><style>.a{fill:#fff;}</style></defs><g transform="translate(0 0.754)"><rect width="169" height="57" rx="6" transform="translate(0 -0.754)"/><g transform="translate(14.083 12.316)"><path class="a" d="M30.87,22.909A6.989,6.989,0,0,1,34.2,17.046,7.154,7.154,0,0,0,28.561,14c-2.372-.249-4.671,1.419-5.879,1.419-1.232,0-3.093-1.394-5.1-1.353a7.507,7.507,0,0,0-6.317,3.853c-2.731,4.729-.694,11.679,1.922,15.5,1.309,1.872,2.839,3.963,4.841,3.888,1.959-.081,2.691-1.249,5.055-1.249,2.343,0,3.029,1.249,5.072,1.2,2.1-.034,3.426-1.88,4.69-3.77a15.482,15.482,0,0,0,2.144-4.368A6.754,6.754,0,0,1,30.87,22.909Z" transform="translate(-9.972 -6.555)"/><path class="a" d="M23.376,13.65A6.881,6.881,0,0,0,24.95,8.72a7,7,0,0,0-4.53,2.344A6.548,6.548,0,0,0,18.8,15.811,5.789,5.789,0,0,0,23.376,13.65Z" transform="translate(-6.336 -8.72)"/><g transform="translate(34.538 12.924)"><path class="a" d="M45.549,30.876H38.864l-1.605,4.74H34.427l6.332-17.538H43.7l6.332,17.538h-2.88Zm-5.993-2.187h5.3L42.243,21H42.17Z" transform="translate(-34.427 -17.786)"/><path class="a" d="M58.676,27.876c0,3.973-2.127,6.526-5.336,6.526a4.335,4.335,0,0,1-4.023-2.237h-.061V38.5H46.631V21.482h2.54v2.127h.048a4.536,4.536,0,0,1,4.071-2.26C56.537,21.348,58.676,23.914,58.676,27.876Zm-2.7,0c0-2.589-1.338-4.291-3.379-4.291-2.005,0-3.354,1.738-3.354,4.291,0,2.576,1.349,4.3,3.354,4.3C54.64,32.178,55.978,30.488,55.978,27.876Z" transform="translate(-29.396 -16.438)"/><path class="a" d="M68.641,27.876c0,3.973-2.127,6.526-5.336,6.526a4.335,4.335,0,0,1-4.023-2.237h-.061V38.5H56.6V21.482h2.54v2.127h.048a4.536,4.536,0,0,1,4.071-2.26C66.5,21.348,68.641,23.914,68.641,27.876Zm-2.7,0c0-2.589-1.338-4.291-3.379-4.291-2.005,0-3.354,1.738-3.354,4.291,0,2.576,1.349,4.3,3.354,4.3,2.041,0,3.379-1.69,3.379-4.3Z" transform="translate(-25.287 -16.438)"/><path class="a" d="M72.495,30.815c.194,1.739,1.884,2.881,4.193,2.881,2.212,0,3.8-1.142,3.8-2.71,0-1.361-.96-2.176-3.233-2.735L74.986,27.7c-3.22-.778-4.715-2.284-4.715-4.728,0-3.026,2.637-5.1,6.381-5.1,3.706,0,6.246,2.078,6.332,5.1H80.334c-.159-1.75-1.605-2.807-3.72-2.807s-3.561,1.069-3.561,2.625c0,1.24.924,1.969,3.185,2.528l1.932.474c3.6.851,5.093,2.3,5.093,4.862,0,3.281-2.614,5.336-6.77,5.336-3.889,0-6.515-2.007-6.685-5.179Z" transform="translate(-19.84 -17.871)"/><path class="a" d="M84.659,19.3v3.026H87.09V24.4H84.659v7.049c0,1.1.487,1.605,1.556,1.605A8.2,8.2,0,0,0,87.078,33v2.066a7.208,7.208,0,0,1-1.458.121c-2.589,0-3.6-.972-3.6-3.452V24.4H80.163V22.326h1.859V19.3Z" transform="translate(-15.571 -17.282)"/><path class="a" d="M86.065,27.882c0-4.023,2.369-6.551,6.064-6.551s6.066,2.528,6.066,6.551-2.346,6.551-6.066,6.551S86.065,31.916,86.065,27.882Zm9.456,0c0-2.76-1.265-4.389-3.391-4.389s-3.39,1.641-3.39,4.389c0,2.771,1.263,4.387,3.39,4.387s3.391-1.616,3.391-4.387Z" transform="translate(-13.138 -16.445)"/><path class="a" d="M96.186,21.482h2.5v2.176h.061a3.05,3.05,0,0,1,3.076-2.31,4.048,4.048,0,0,1,.9.1V23.9a3.669,3.669,0,0,0-1.179-.159,2.645,2.645,0,0,0-2.735,2.942v7.584H96.186Z" transform="translate(-8.965 -16.438)"/><path class="a" d="M112.751,30.519c-.353,2.321-2.614,3.914-5.506,3.914-3.72,0-6.028-2.492-6.028-6.49s2.321-6.612,5.918-6.612c3.538,0,5.762,2.43,5.762,6.307v.9h-9.031V28.7a3.33,3.33,0,0,0,3.44,3.622,2.893,2.893,0,0,0,2.953-1.8ZM103.879,26.7h6.393a3.075,3.075,0,0,0-3.136-3.245,3.237,3.237,0,0,0-3.256,3.245Z" transform="translate(-6.891 -16.445)"/></g></g></g><g transform="translate(50.378 12.67)"><path class="a" d="M38.715,8.734a3.728,3.728,0,0,1,3.965,4.187c0,2.692-1.455,4.24-3.965,4.24H35.671V8.734ZM36.98,15.969h1.589a2.649,2.649,0,0,0,2.779-3.031,2.657,2.657,0,0,0-2.779-3.014H36.98Z" transform="translate(-35.671 -8.319)"/><path class="a" d="M41.685,13.408a3.013,3.013,0,1,1,6,0,3.013,3.013,0,1,1-6,0Zm4.707,0c0-1.378-.619-2.185-1.706-2.185s-1.7.806-1.7,2.185.614,2.189,1.7,2.189,1.706-.805,1.706-2.189Z" transform="translate(-33.197 -7.748)"/><path class="a" d="M53.636,16.554h-1.3L51.02,11.871h-.1l-1.309,4.684h-1.29l-1.753-6.359h1.273l1.139,4.853h.094l1.307-4.853h1.2l1.307,4.853h.1l1.134-4.853h1.255Z" transform="translate(-31.178 -7.712)"/><path class="a" d="M53.854,10.232h1.208v1.01h.094a1.9,1.9,0,0,1,1.9-1.133,2.068,2.068,0,0,1,2.2,2.365v4.117H58v-3.8c0-1.022-.444-1.53-1.372-1.53a1.459,1.459,0,0,0-1.518,1.612v3.72H53.854Z" transform="translate(-28.174 -7.75)"/><path class="a" d="M59.094,8.437h1.255v8.842H59.094Z" transform="translate(-26.014 -8.437)"/><path class="a" d="M61.222,13.408a3.013,3.013,0,1,1,6,0,3.014,3.014,0,1,1-6,0Zm4.707,0c0-1.378-.619-2.185-1.706-2.185s-1.7.806-1.7,2.185.614,2.189,1.7,2.189,1.706-.805,1.706-2.189Z" transform="translate(-25.142 -7.748)"/><path class="a" d="M66.4,14.792c0-1.145.852-1.8,2.365-1.9l1.723-.1v-.549c0-.672-.444-1.051-1.3-1.051-.7,0-1.186.257-1.325.707H66.646c.128-1.092,1.156-1.793,2.6-1.793,1.594,0,2.494.794,2.494,2.137V16.59H70.53V15.7h-.1a2.14,2.14,0,0,1-1.91,1,1.921,1.921,0,0,1-2.12-1.9Zm4.088-.543v-.532l-1.553.1c-.876.059-1.273.357-1.273.917s.5.905,1.179.905a1.5,1.5,0,0,0,1.647-1.39Z" transform="translate(-23.001 -7.748)"/><path class="a" d="M71.348,14.1c0-2.009,1.033-3.282,2.64-3.282a2.1,2.1,0,0,1,1.95,1.116h.094V8.437h1.255v8.842h-1.2v-1h-.1a2.207,2.207,0,0,1-2,1.11C72.37,17.384,71.348,16.111,71.348,14.1Zm1.3,0c0,1.349.636,2.161,1.7,2.161s1.712-.823,1.712-2.155-.661-2.161-1.712-2.161-1.7.817-1.7,2.155Z" transform="translate(-20.962 -8.437)"/><path class="a" d="M79.234,13.408a3.013,3.013,0,1,1,6,0,3.013,3.013,0,1,1-6,0Zm4.707,0c0-1.378-.619-2.185-1.706-2.185s-1.7.806-1.7,2.185.614,2.189,1.7,2.189S83.941,14.792,83.941,13.408Z" transform="translate(-17.716 -7.748)"/><path class="a" d="M84.669,10.232h1.208v1.01h.094a1.9,1.9,0,0,1,1.9-1.133,2.068,2.068,0,0,1,2.2,2.365v4.117H88.815v-3.8c0-1.022-.444-1.53-1.372-1.53a1.459,1.459,0,0,0-1.518,1.612v3.72H84.669Z" transform="translate(-15.469 -7.75)"/><path class="a" d="M94.177,9.074v1.612h1.378v1.057H94.177v3.27c0,.666.274.958.9.958a4.189,4.189,0,0,0,.479-.029v1.045a4.117,4.117,0,0,1-.683.064c-1.4,0-1.952-.491-1.952-1.717V11.743h-1.01V10.686h1.01V9.074Z" transform="translate(-12.484 -8.174)"/><path class="a" d="M95.7,8.437h1.244v3.5h.1A1.957,1.957,0,0,1,98.987,10.8a2.095,2.095,0,0,1,2.19,2.371v4.106H99.921v-3.8c0-1.016-.473-1.53-1.36-1.53a1.486,1.486,0,0,0-1.6,1.612v3.714H95.7Z" transform="translate(-10.92 -8.437)"/><path class="a" d="M106.431,14.873a2.582,2.582,0,0,1-2.756,1.84,2.889,2.889,0,0,1-2.938-3.282,2.933,2.933,0,0,1,2.932-3.322c1.769,0,2.837,1.209,2.837,3.206v.438h-4.491v.07a1.681,1.681,0,0,0,1.694,1.822,1.524,1.524,0,0,0,1.513-.771Zm-4.415-2.049h3.212a1.534,1.534,0,0,0-1.565-1.647,1.626,1.626,0,0,0-1.647,1.647Z" transform="translate(-8.856 -7.748)"/></g></svg>