<svg xmlns="http://www.w3.org/2000/svg" width="444" height="354.784" viewBox="0 0 444 354.784"><defs><style>.a{fill:#fafafa;}.b{fill:#8fcc95;}.c{fill:#a61e1e;}.d{fill:#e6797c;}.e{fill:#c1292d;}.f{fill:#bd1c1f;}.g{fill:#cc4a46;}.h{fill:#c2151f;}.i{fill:#54a560;}.j{fill:#f6af20;}.k{fill:#db971f;}</style></defs><g transform="translate(-691 -100.795)"><rect class="a" width="444" height="304" rx="6" transform="translate(691 100.795)"/><g transform="translate(-1449.658 -522.002)"><path class="b" d="M2278.728,770,2263,811.465l14.03,55.909,31.724,34.17,6.647,38.644h30.4l-1.314-32.58,1.441-17.5-5.972-24.288-19.764-22.9-14.7-21h-11.333l12.278,43.895-7.7-11.458-17.158-42.895,5.1-41.465Z" transform="translate(0 37.394)"/><g transform="translate(2306.673 762.313)"><path class="c" d="M2293.545,780.91l26.532-42.43,31.349,14.864-23,15.3-20.736,18.86Z" transform="translate(-2293.545 -738.467)"/><path class="d" d="M2335.516,753.56l24.044-15.089,28.132,39.589-27.811.006Z" transform="translate(-2275.505 -738.471)"/><path class="e" d="M2341.319,751.843l-23,14.831-1.253,12.4,25.615,33.788,17.925-32.058.137-10.37Z" transform="translate(-2283.436 -732.723)"/><path class="f" d="M2318.772,765.624l-14.016,13.985,42.28,68.2-.009-37.364-27.164-34.611Z" transform="translate(-2288.726 -726.8)"/><path class="g" d="M2355.3,768.142v7.2l-19.007,32.4.008,37.116,44.458-50.325Z" transform="translate(-2275.169 -725.717)"/><path class="e" d="M2352.557,768.8l27.812-.006-4.709,22.627Z" transform="translate(-2268.18 -725.436)"/><path class="h" d="M2293.545,770.893l11.209,4.645,43.171,70.007-54.378-62.875Z" transform="translate(-2293.544 -724.535)"/></g><path class="i" d="M2288.833,806.314l15.967,23.858L2323.081,852l8.229,22.195,3.39,50.382.127-50.083-5.973-24.287-19.764-22.9-14.7-21Z" transform="translate(11.104 53.003)"/><path class="i" d="M2282.388,770,2273,812.895l18.625,42.6,10.519,10.319-7.7-11.458-17.158-42.895Z" transform="translate(4.298 37.394)"/><path class="b" d="M2411.2,770l15.728,41.465-14.03,55.909-31.724,34.17-6.646,38.644h-30.4l1.314-32.58L2344,890.1l5.973-24.288,19.764-22.9,14.7-21h11.333l-12.278,43.895,7.7-11.458,17.157-42.895-5.1-41.465Z" transform="translate(34.815 37.394)"/><path class="i" d="M2389.992,806.314l-15.966,23.858L2355.746,852l-8.229,22.195-3.39,50.382L2344,874.5l5.973-24.287,19.764-22.9,14.7-21Z" transform="translate(34.815 53.003)"/><path class="i" d="M2392.373,770l9.388,42.894-18.625,42.6-10.519,10.319,7.7-11.458,17.157-42.895Z" transform="translate(47.115 37.394)"/><path class="j" d="M2284.583,722l3.683,7.463,8.236,1.2-5.959,5.809,1.407,8.2-7.367-3.873-7.366,3.873,1.407-8.2-5.959-5.809,8.236-1.2Z" transform="translate(4.153 16.763)"/><path class="k" d="M2284.583,722l-2.216,7.755-9.7.9,8.236-1.2Z" transform="translate(4.153 16.763)"/><path class="k" d="M2272.664,728.057l7.765,5.743-3.212,8.269,1.407-8.2Z" transform="translate(4.153 19.366)"/><path class="j" d="M2390.328,737l2.986,6.051,6.678.97-4.832,4.71,1.141,6.651-5.973-3.14-5.973,3.14,1.141-6.651-4.832-4.71,6.678-.97Z" transform="translate(50.574 23.21)"/><path class="k" d="M2390.328,737l-1.8,6.288-7.867.734,6.678-.97Z" transform="translate(50.574 23.21)"/><path class="k" d="M2380.664,741.911l6.3,4.656-2.6,6.7,1.141-6.651Z" transform="translate(50.574 25.321)"/><path class="j" d="M2338.136,683l4.845,9.816,10.833,1.574-7.839,7.641,1.851,10.789-9.689-5.094-9.689,5.094,1.851-10.789-7.839-7.641,10.833-1.574Z" transform="translate(25.556 0)"/><path class="k" d="M2338.136,683l-2.914,10.2-12.764,1.19,10.833-1.574Z" transform="translate(25.556 0)"/><path class="k" d="M2322.458,690.967l10.213,7.553-4.225,10.877,1.851-10.789Z" transform="translate(25.556 3.424)"/></g></g></svg>