<svg xmlns="http://www.w3.org/2000/svg" xmlns:xlink="http://www.w3.org/1999/xlink" width="444" height="324.377" viewBox="0 0 444 324.377"><defs><style>.a,.f{fill:none;}.b{fill:#eaf0eb;}.c{fill:#54a560;}.d{fill:#fff;}.e{fill:#4c866c;}.f{stroke:#4c866c;stroke-miterlimit:10;stroke-width:3px;}.g{fill:#8fcc95;}.h{clip-path:url(#c);}.i{filter:url(#a);}</style><filter id="a" x="114.392" y="110.082" width="219.331" height="169.679" filterUnits="userSpaceOnUse"><feOffset dy="2" input="SourceAlpha"/><feGaussianBlur stdDeviation="1.5" result="b"/><feFlood flood-color="#54a560"/><feComposite operator="in" in2="b"/><feComposite in="SourceGraphic"/></filter><clipPath id="c"><path class="a" d="M1738,775.676V916.322h252.807V775.676l-126.4,40.057Z" transform="translate(-1738 -775.676)"/></clipPath></defs><g transform="translate(-691 -101)"><rect class="b" width="444" height="276.809" rx="6" transform="translate(691 101)"/><g transform="translate(-951 -492.638)"><path class="c" d="M1738,848.582V758.675l126.4-70.323,126.4,70.323v89.907Z" transform="translate(0 0)"/><g transform="translate(1760.892 706.22)"><g class="i" transform="matrix(1, 0, 0, 1, -118.89, -112.58)"><path class="d" d="M1970.788,866.559H1760.457V705.88h95.166l11.234,19.309h103.931Z" transform="translate(-1641.56 -593.3)"/></g><rect class="e" width="86.891" height="54.479" transform="translate(17.93 35.86)"/><line class="f" x2="74.63" transform="translate(118.613 52.981)"/><line class="f" x2="74.63" transform="translate(118.613 62.566)"/><line class="f" x2="74.63" transform="translate(118.613 72.152)"/></g><path class="g" d="M1738,775.676V916.322h252.807V775.676l-126.4,40.057Z" transform="translate(0 1.693)"/><g transform="translate(1738 777.369)"><g class="h"><g transform="translate(35.794 43.618)"><path class="d" d="M1913.762,894.272l-.268.632-.5,1.2v.009l-.771,1.835-.869,2.079-9.9,23.723a2.569,2.569,0,0,1-1.461,1.465,1.931,1.931,0,0,1-.381.117,2.255,2.255,0,0,1-1.5-.217,2.9,2.9,0,0,1-1.413-3.092l.381-2.169.682-3.86,2.46-13.933.113-.641.09-.488v-.009l.779-4.439-1.225-3.1-2.013-5.062h-19.8V871.3l.909-1.9,3.726-7.838,4.513-21.888-10.836-6.934-18.571-3.716-10.584,10.306,5.024,20.451,4.773,9.592.933,1.88V887.5l-2.426.082-20.47.687-2.37,6.635-.5,1.411,1.169,7.693.463,3.038,2.029,13.426a2.817,2.817,0,0,1-2.086,3.263,2.48,2.48,0,0,1-2.646-1.446l-.332-.678-10.754-22.078-.553-1.139-2.256-4.629,3.392-2.378.016-.009,10.925-7.63,1.42-.986.431-.017,19.553-.651v-8.679l-13.661-4.566-4.472-1.491,1.4-5.669,5.747-23.37.406-1.664.446-.434,12.557-12.241.47-.453,1.185-.235,21.306-4.258,2.865-.57,1.469,2.486,9.042,15.342.568.958.219,1.067,5.049,24.527,1.063,5.162-3.8,1.311-11.736,4.059v9.367h17.053l1.25,1.066,9.837,8.372,2.087,1.781Z" transform="translate(-1772.256 -818.465)"/><path class="d" d="M1898.651,900.765l11.136-2.034,3.441-.633,2.232-.407-.333-1.772-1.956-10.4-1.347,7.142-.17.913-13.246-1.492,1.226,3.1-.779,4.439v.009Z" transform="translate(-1770.684 -817.165)"/><path class="d" d="M1940.9,881.143l-8.5,5.172,5.187-7.386h0l-2.6-15.767h0l-6.907-7.558h0l-13.157-3.083h0l-6.948,9.2h0L1906.7,877.9h0l6.42,8.417-9.683-6.057-.609-.38-.105-1.3-1.461-18.344-.154-1.88,1.291-.958,10.876-8.073.4-.289.649-.154,16.363-3.833,1.631-.38,1.843,1.944,9.034,9.52,1.907,2.016-.341,2.088-3.166,19.248-.227,1.383Z" transform="translate(-1770.632 -817.957)"/><path class="d" d="M1954.157,904.788l-.308.705-7.622,17.512a.245.245,0,0,1-.341.135.3.3,0,0,1-.139-.334l4.083-17.341h0l-5.089-4.791h0l-12.889-2-2.281-.353.325-1.827,1.956-10.975,1.526,8.561h0l12.938-2.006,2.256-.345.885,2.07,4.107,9.6Z" transform="translate(-1770.081 -817.165)"/><path class="d" d="M1895.565,918l2.338,5.288a.348.348,0,0,0,.2.19.279.279,0,0,0,.211.009.284.284,0,0,0,.17-.126.413.413,0,0,0,.072-.353l-2.3-8.869Z" transform="translate(-1770.74 -816.611)"/><path class="d" d="M1834.3,903.57l-1.169-7.693.5-1.411-.284.009-.43.009h-.389l-10.974.126v-6.961l6.177-5.7.723-.66V861.549l-.633-.9-7.3-10.415-.114-.163-2.483-.994-15.609-6.185-4.561-1.808-1.591,4.385-5.129,14.14-1.088,2.657,1.176,17.114.082,1.14.666.6,7.3,6.555v6.464l-14.163.362-.389.009-1.169.832-7.913,5.677-2.427,1.736,1.51,3.426,8.546,19.311a1.98,1.98,0,0,0,2.118,1.23,2.23,2.23,0,0,0,1.689-2.568l-2.679-19.32,2.1-5.7,14.829-.615,1.94-.072v-12.91l-.746-.67-7.241-6.49.95-13.707,12.346-3.526,8.725-3.317,7.264,5.578V879.2l-6.177,5.7-.722.67V899.05l2,.027,1.413.017,10.779.118h.259l2.1,5.65-2.386,16.309.332.678a2.48,2.48,0,0,0,2.646,1.446,2.818,2.818,0,0,0,2.086-3.263l-2.029-13.426Z" transform="translate(-1773.113 -818.027)"/></g></g></g><path class="e" d="M1756.307,747.2v34.99l3.752,1.189.334-38.452Z" transform="translate(0.355 1.097)"/></g></g></svg>