<svg xmlns="http://www.w3.org/2000/svg" xmlns:xlink="http://www.w3.org/1999/xlink" width="444" height="345" viewBox="0 0 444 345"><defs><style>.a,.c,.e{fill:none;}.b{fill:#fafafa;}.c{stroke:#8fcc95;stroke-miterlimit:10;stroke-width:3px;}.d{fill:#4c866c;}.e{stroke:#fff;stroke-linecap:round;stroke-linejoin:round;stroke-width:2px;}.f{clip-path:url(#a);}.g{fill:#8fcc95;}.h{fill:#fff;}</style><clipPath id="a"><circle class="a" cx="37.8" cy="37.8" r="37.8"/></clipPath></defs><g transform="translate(-691 -100.795)"><rect class="b" width="444" height="345" rx="6" transform="translate(691 100.795)"/><g transform="translate(-1456.168 27.421)"><line class="c" x2="117.843" y2="48.143" transform="translate(2310.962 204.991)"/><line class="c" x1="119.567" y2="55.436" transform="translate(2311.371 289.89)"/><path class="d" d="M2304.234,110.052v27.919l-9.086,15.155,15.484-6.153H2377.2V110.052Z" transform="translate(4.97 0)"/><path class="d" d="M2305.851,243.492V280.2l-9.086,15.155,15.484-6.153h66.564V243.492Z" transform="translate(5.111 11.606)"/><path class="d" d="M2453.579,152.914H2377.1v58.9h44.859l14.323,11.514-.21-11.514h17.506Z" transform="translate(12.098 3.728)"/><rect class="e" width="30.286" height="18.46" transform="translate(2330.542 119.722)"/><rect class="e" width="48.348" height="18.46" transform="translate(2403.264 168.949)"/><line class="e" x2="48.348" transform="translate(2403.264 196.037)"/><line class="e" x2="48.348" transform="translate(2403.264 203.949)"/><line class="e" x2="48.348" transform="translate(2324.148 269.162)"/><line class="e" x2="48.348" transform="translate(2324.148 277.074)"/><line class="e" x2="48.348" transform="translate(2324.148 284.986)"/><path class="e" d="M2397.187,182.416h-2.322l10.579-13.186,6.841,13.186-1.567-6.593,7.032-8.351,10.019,14.944" transform="translate(13.643 4.994)"/><path class="e" d="M2334.507,123.628l7.18,4.143-7.18,4.761" transform="translate(8.394 1.181)"/><g transform="translate(2238 306.083)"><g class="f"><circle class="g" cx="37.8" cy="37.8" r="37.8"/><path class="h" d="M2253.34,362.15l-7.583-13.977-1.469-2.708,2.221-1.392,7.121-4.463.921-.577.282-.009,14.317-.434-1.58,1.629v-7.748l.608,1.271-9.507-2.847-2.913-.872.908-3.315,3.745-13.669.266-.973.291-.254,8.182-7.159.3-.265.77-.138,13.88-2.49,1.869-.336.957,1.458,5.889,8.971.369.563.143.624,3.289,14.345.693,3.02-2.472.767-8.235,2.556.589-1.255v8.182l-1.63-1.63h12.74l.813.622,6.407,4.9,1.6,1.223-1,2.149-7.016,15.092a1.643,1.643,0,0,1-3.1-1.01l3.211-16.33.6,3.371-3.262-7.374,1.281.621h-13.9v-9.955l.59-1.113,4.037-7.619-1.779,3.787,3.288-14.345.513,1.187-9.305-5.347L2284.1,310l-13.88-2.49,1.073-.4-8.18,7.159.557-1.227,3.745,13.669-2.006-4.187,4.811,8.681.609,1.1v9.5l-1.582.048-14.318.434,1.2-.586-3.107,7.809.752-4.1,2.644,15.681a1.653,1.653,0,0,1-3.084,1.063Z" transform="translate(-2237.453 -289.439)"/></g></g><g transform="translate(2424.361 233.121)"><g class="f" transform="translate(0)"><circle class="g" cx="37.8" cy="37.8" r="37.8"/><path class="h" d="M2426.594,294.538l-6.747-13.7-.2-.411.348-1.055,2.363-7.16.605-1.837,2.23.226,14.11,1.426-1.579,1.629,1.63-7.775h0l-8.063-4.523-.507-.285-.086-.975-1.222-13.715-.125-1.409,1.076-.716,9.059-6.034.329-.218.543-.114,13.624-2.864,1.359-.286,1.536,1.453,7.521,7.116,1.593,1.507-.287,1.565-2.635,14.394-.189,1.033-.387.211-7.077,3.861h0l1.631,8.21-1.631-1.63,12.046-1.673,1.88-.261.738,1.548,3.42,7.178.494,1.035-.256.526-6.345,13.094a.217.217,0,0,1-.405-.15l3.692-14.074.238,1.561-6.071-5.136,2.616,1.287-12.046-1.674-1.9-.264.271-1.366,1.63-8.21h0l4.969-6.348-.576,1.243-2.635-14.394,1.305,3.072-7.392-7.251,2.895,1.167-13.624-2.863.873-.334-7,8.334.95-2.125-1.219,13.715-.595-1.259,5.99,7.041h0l1.631,7.775.277,1.325-1.858.305-14,2.3,2.836-1.611-5.5,5.154.146-1.465,4.242,14.671a.288.288,0,0,1-.535.206Z" transform="translate(-2408.563 -222.276)"/></g></g><g transform="translate(2238 153.126)"><g class="f"><circle class="g" cx="37.8" cy="37.8" r="37.8"/><path class="h" d="M2253.874,222.495l-6.976-14.156-1.239-2.512,1.985-1.276,6.463-4.157.949-.611.321-.008,13.144-.308-1.58,1.629v-7.111l.607,1.27-6.571-5.289-.545-.438-.063-.832-.962-12.546.886-1.951,4.189-10.364,1.3-3.215,3.726,1.327,12.739,4.534,2.032.724.093.121,5.966,7.638.512.657v14.462l-.591.489-5.631,4.669.59-1.254V201.5l-1.63-1.63,11.263-.112.45,0,.92.668,6.023,4.383,1.639,1.191-.99,2.215-6.736,15.074a1.644,1.644,0,0,1-3.124-.935l2.651-16.3.649,3.407-2.851-6.882,1.368.664-11.263-.113-1.631-.016V193.22l.589-.489,5.633-4.67-.59,1.255V176.152l.512,1.187-7.979-5.5,2.125.843-12.739,4.535,5.027-1.889-10.83,2.777.885-1.951-.961,12.546-.608-1.271,6.57,5.289.609.49v9.463l-1.582.059-13.138.488,1.269-.618-2.922,7.107.745-3.787,2.41,15.6a1.649,1.649,0,0,1-3.11.982Z" transform="translate(-2237.333 -148.728)"/></g></g></g></g></svg>