<svg xmlns="http://www.w3.org/2000/svg" width="444" height="343.59" viewBox="0 0 444 343.59"><defs><style>.a{fill:#eaf0eb;}.b{fill:#fff;}.c{fill:#8fcc95;}.d{fill:#4c866c;}.e{fill:#e8e8e8;}.f{fill:#bbe0be;}.g{fill:#66be76;}.h{fill:#80c98d;}.i{fill:#54a560;}.j{fill:#a61e1e;}.k{fill:#e6797c;}.l{fill:#c1292d;}.m{fill:#bd1c1f;}.n{fill:#cc4a46;}.o{fill:#c2151f;}.p{fill:none;stroke:#54a560;stroke-miterlimit:10;stroke-width:3px;}</style></defs><g transform="translate(-691 -101)"><rect class="a" width="444" height="276.809" rx="6" transform="translate(691 101)"/><g transform="translate(-969.398 60.83)"><g transform="translate(1828.869 83.318)"><circle class="b" cx="54.335" cy="54.335" r="54.335" transform="translate(0.337 0.026)"/><circle class="b" cx="54.335" cy="54.335" r="54.335" transform="translate(0.337 0.026)"/><path class="c" d="M1819.828,137.661h54.334V83.326s-19.524-.766-35.6,13.116C1817.955,114.24,1819.828,137.661,1819.828,137.661Z" transform="translate(-1819.784 -83.318)"/><g transform="translate(9.473 8.46)"><path class="d" d="M1869.749,165.76h.776a1.1,1.1,0,0,1,1.1,1.094l.014,6.989a1.1,1.1,0,0,1-1.094,1.1h-.776a1.1,1.1,0,0,1-1.1-1.093l-.014-6.989a1.1,1.1,0,0,1,1.094-1.1" transform="translate(-1824.552 -83.842)"/><path class="d" d="M1853.559,161.17l.673.387a1.1,1.1,0,0,1,.4,1.5l-3.482,6.058a1.1,1.1,0,0,1-1.5.4l-.672-.386a1.1,1.1,0,0,1-.406-1.5l3.483-6.06a1.1,1.1,0,0,1,1.5-.4" transform="translate(-1826.499 -84.298)"/><path class="d" d="M1841.793,148.942l.389.672a1.1,1.1,0,0,1-.4,1.5l-6.044,3.506a1.1,1.1,0,0,1-1.5-.4l-.389-.671a1.1,1.1,0,0,1,.4-1.5l6.045-3.506a1.1,1.1,0,0,1,1.5.4" transform="translate(-1827.917 -85.514)"/><path class="d" d="M1837.6,132.36v.776a1.1,1.1,0,0,1-1.094,1.1l-6.988.014a1.1,1.1,0,0,1-1.1-1.094v-.776a1.1,1.1,0,0,1,1.094-1.1l6.988-.014a1.1,1.1,0,0,1,1.1,1.094" transform="translate(-1828.425 -87.162)"/><path class="d" d="M1842.15,116.169l-.387.673a1.1,1.1,0,0,1-1.5.4l-6.058-3.482a1.1,1.1,0,0,1-.4-1.5l.386-.672a1.1,1.1,0,0,1,1.5-.406l6.06,3.483a1.1,1.1,0,0,1,.4,1.5" transform="translate(-1827.921 -89.109)"/><path class="d" d="M1854.177,104.4l-.672.389a1.1,1.1,0,0,1-1.5-.4l-3.505-6.044a1.1,1.1,0,0,1,.4-1.5l.671-.389a1.1,1.1,0,0,1,1.5.4l3.506,6.045a1.1,1.1,0,0,1-.4,1.5" transform="translate(-1826.507 -90.527)"/><path class="d" d="M1870.462,100.215h-.776a1.1,1.1,0,0,1-1.1-1.094l-.015-6.988a1.1,1.1,0,0,1,1.094-1.1h.776a1.1,1.1,0,0,1,1.1,1.094l.014,6.988a1.1,1.1,0,0,1-1.094,1.1" transform="translate(-1824.56 -91.035)"/><path class="d" d="M1886.948,104.759l-.673-.387a1.1,1.1,0,0,1-.4-1.5l3.482-6.058a1.1,1.1,0,0,1,1.5-.4l.672.386a1.1,1.1,0,0,1,.406,1.5l-3.483,6.06a1.1,1.1,0,0,1-1.5.4" transform="translate(-1822.909 -90.531)"/><path class="d" d="M1898.914,116.787l-.389-.672a1.1,1.1,0,0,1,.4-1.5l6.044-3.506a1.1,1.1,0,0,1,1.5.4l.389.671a1.1,1.1,0,0,1-.4,1.5l-6.044,3.506a1.1,1.1,0,0,1-1.5-.4" transform="translate(-1821.692 -89.117)"/><path class="d" d="M1903.151,133.072V132.3a1.1,1.1,0,0,1,1.094-1.1l6.988-.014a1.1,1.1,0,0,1,1.1,1.094v.776a1.1,1.1,0,0,1-1.094,1.1l-6.988.014a1.1,1.1,0,0,1-1.1-1.094" transform="translate(-1821.232 -87.17)"/><path class="d" d="M1898.559,149.558l.387-.673a1.1,1.1,0,0,1,1.5-.4l6.058,3.482a1.1,1.1,0,0,1,.4,1.5l-.386.672a1.1,1.1,0,0,1-1.5.406l-6.06-3.483a1.1,1.1,0,0,1-.4-1.5" transform="translate(-1821.688 -85.519)"/><path class="d" d="M1886.333,161.524l.672-.389a1.1,1.1,0,0,1,1.5.4l3.506,6.044a1.1,1.1,0,0,1-.4,1.5l-.671.389a1.1,1.1,0,0,1-1.5-.4l-3.506-6.045a1.1,1.1,0,0,1,.4-1.5" transform="translate(-1822.903 -84.301)"/></g><rect class="d" width="2.81" height="31.851" rx="1" transform="translate(23.464 55.279) rotate(-90)"/><rect class="d" width="2.81" height="30.915" rx="1" transform="translate(52.505 24.365)"/></g><g transform="translate(1725.398 190.75)"><rect class="c" width="99.301" height="178.776" transform="translate(0 16.075) rotate(-9.316)"/><path class="b" d="M1846.607,351.926l-89.417,14.668L1730.2,202.035l30.344-4.978,3.229,2.625,23.641-3.878,1.563-3.411,30.64-5.026Z" transform="translate(-1724.936 -180.734)"/><g transform="translate(20.448 56.803)"><g transform="translate(8.607 49.043)"><rect class="d" width="75.644" height="20.088" transform="translate(0 12.245) rotate(-9.316)"/><rect class="b" width="58.927" height="0.365" transform="translate(9.225 16.845) rotate(-9.316)"/><rect class="b" width="58.927" height="0.365" transform="translate(9.845 20.624) rotate(-9.316)"/><rect class="b" width="58.927" height="0.365" transform="translate(10.465 24.402) rotate(-9.316)"/></g><rect class="e" width="76.815" height="44.163" transform="translate(0 12.435) rotate(-9.316)"/></g><g transform="translate(42.799 70.369)"><path class="b" d="M1775.093,245.811l-8.235,10.387-2.419,9.131,3.161,6.409,8.885,2.759,5.179.355,3.9-1.924,6.9,1.66,2.912-1.984,2.409-.163,3.828-2.667,2.36-5.809-.481-2.933-1.606-2.447-3.611-1.818-8.473-11.26Z" transform="translate(-1764.439 -245.507)"/><path class="f" d="M1774.424,245.764l14.415-.257,3.458,4.553-4.244-2.276-1.862,3.079Z" transform="translate(-1763.478 -245.507)"/><path class="c" d="M1787.417,248.314l-2.355,4,2.6,2.639,4.286-1.057.105-3.03Z" transform="translate(-1762.454 -245.237)"/><path class="g" d="M1792.174,251.625l-.3,1.856,2.976,1.62Z" transform="translate(-1761.798 -244.918)"/><path class="h" d="M1784.91,254.236l-3.428,2.971,2.736.153,3.472-.87-.3-1.908Z" transform="translate(-1762.798 -244.667)"/><path class="h" d="M1774.282,246.32l11.663,5.006-.659,1.322,2.177,2.052-1.915-.288-6.856,5.945-4.835-6.435Z" transform="translate(-1763.532 -245.429)"/><path class="c" d="M1774.39,246.408l-7.745,9.7,7.374-2.113Z" transform="translate(-1764.227 -245.42)"/><path class="i" d="M1774.378,253.859l-7.719,2.169-2.22,8.5,3.16,6.409,8.885,2.759,5.179.355,3.621-1.8.349-3.37Z" transform="translate(-1764.438 -244.703)"/><path class="g" d="M1778.623,259.879l2.808-2.267,2.865.132,3.769-.891-.95,3.389,2.293,4.8,1.461,1.566-6.062,1.6Z" transform="translate(-1763.074 -244.415)"/><path class="f" d="M1787.46,254.968l.374,1.925,6.844,3.517,1.13-2.293,3.746-.376-7.856-3.92Z" transform="translate(-1762.223 -244.707)"/><path class="h" d="M1787.8,257.3l-.889,2.857,2.116,4.624,1.972,1.934,2.976,1.62,4.037-2.936,1.449-2.18Z" transform="translate(-1762.276 -244.372)"/><path class="i" d="M1784.387,268.148l-.4,3.077,6.593,1.629,2.909-1.983,2.411-.163,3.828-2.667,1.082-2.587-.924-1.957-1.015,1.673-4.469,3.443-3.659-2.11Z" transform="translate(-1762.557 -243.775)"/><path class="h" d="M1798.9,262.813l.678,2.3,1.081-2.586-.337-2.053Z" transform="translate(-1761.122 -244.067)"/><path class="g" d="M1795.508,258.281l-.885,1.952,4.294,2.308,1.608-2.649-1.5-2.189Z" transform="translate(-1761.533 -244.333)"/></g></g><g transform="translate(1907.062 188.81)"><rect class="c" width="99.301" height="178.776" transform="translate(35.544 0) rotate(11.468)"/><path class="b" d="M1984.515,369.691l-87.805-17.813,32.782-161.591,29.8,6.045,2.063,3.559,23.215,4.71,2.642-2.6,30.088,6.1Z" transform="translate(-1890.572 -182.513)"/><g transform="translate(45.288 66.197)"><path class="j" d="M1933.632,259.009l14.64-15.428,11.8,8.843-10.876,4.428-10.232,6.1Z" transform="translate(-1932.306 -243.58)"/><path class="k" d="M1958.543,252.265l11.292-4.251,8.368,18.87-11.584-2.35Z" transform="translate(-1929.908 -243.154)"/><path class="l" d="M1958.512,253.259l-10.835,4.231-1.571,5.059,7.811,16.24,10.178-11.836.935-4.308Z" transform="translate(-1931.104 -242.649)"/><path class="m" d="M1945.942,258.6l-7.021,4.639,11.841,31.983,3.157-15.564-8.386-16.714Z" transform="translate(-1931.796 -242.135)"/><path class="n" d="M1965.344,263.831l-.608,3-10.658,11.887-3.136,15.46,22.775-17.2Z" transform="translate(-1930.639 -241.631)"/><path class="l" d="M1965.618,264.516l11.584,2.35-3.875,9.026Z" transform="translate(-1929.226 -241.565)"/><path class="o" d="M1933.417,259.142l4.276,2.883,12.059,32.811-17.33-30.789Z" transform="translate(-1932.422 -242.082)"/></g></g><g transform="translate(1821.982 262.668)"><path class="p" d="M1888.937,246.92l12.128,10.575-12.128,9.333" transform="translate(-1806.24 -246.92)"/><line class="p" x2="94.825" y2="1.9" transform="translate(0 8.675)"/></g></g></g></svg>