<svg xmlns="http://www.w3.org/2000/svg" xmlns:xlink="http://www.w3.org/1999/xlink" width="730" height="689" viewBox="0 0 730 689"><defs><style>.a{fill:#54a560;}.b{clip-path:url(#a);}.c{opacity:0.189;}.d,.k{fill:#fff;}.e{fill:#e8e8e8;}.f{fill:#d9d9d9;}.g{fill:#c3c3c3;}.h{fill:#cdcdcd;}.i{fill:#b8b8b8;}.j{fill:#dedede;opacity:0.517;}.k{font-size:32px;font-family:Poppins-SemiBold, Poppins;font-weight:600;}</style><clipPath id="a"><rect class="a" width="730" height="689" transform="translate(785 39)"/></clipPath></defs><g transform="translate(-796 -231)"><g class="b" transform="translate(11 192)"><g class="c" transform="translate(871.883 133.305)"><path class="d" d="M616.432,771.052l160.712,146.1,63.312,141.232L806.364,1170.4,670,1238.575l-82.792,19.48-68.18-20.747-107.145,45.133-52.345-24.375-39.408,3.757-68.97-32.977-53.573-87.66v-48.7l19.48-43.832,53.572-38.96L377.784,805.151Z" transform="translate(-197.592 -771.052)"/><path class="e" d="M516,771.052,282.245,805.145l-43.832,82.792L301,839.871l38.27,44.859Z" transform="translate(-102.037 -771.052)"/><path class="f" d="M336.99,785.818l48.7,58.44L350.667,893.81l-72.116-5.725-9.74-48.7Z" transform="translate(-142.175 -703.02)"/><path class="g" d="M323.747,798.846l9.74,29.22-43.833,34.093Z" transform="translate(-206.851 -642.995)"/><path class="h" d="M294.053,803.189l63.312,38.96-43.833,9.74-58.44-4.873-.179-31.654Z" transform="translate(-35.925 -622.986)"/><path class="h" d="M423.643,772.791,248.324,884.669l14.158,19.626-29.758,38.96,30.207-9.74,126.619,77.942,61.12-116.879Z" transform="translate(-4.802 -763.04)"/><path class="f" d="M208.883,772.791,359.855,909.15,235.019,894.543Z" transform="translate(219.697 -763.04)"/><path class="i" d="M339.761,796.241l130.556,14.607,58.44,131.492-34.093,112.012L358.3,1122.532l-82.792,19.48-63.312-19.48-14.607-53.567Z" transform="translate(114.102 -654.997)"/><path class="g" d="M424.7,841.094l-51.43-29.22-45.98,9.74L263.972,817.2l24.353,52.277-24.353,83.639-19.48,29.214,102.272,9.74Z" transform="translate(-44.815 -582.971)"/><path class="e" d="M463.083,812.671l-.936,32.124L360.811,919.811l-24.353-34.093-61.569,3.869,116.633-84.228Z" transform="translate(-253.655 -612.988)"/><path class="h" d="M443.407,814.479l21.941,43.833-21.941,80.381-26.758,36.5-43.833,34.092-73.053-36.767-29.22-31.4Z" transform="translate(-231.55 -570.969)"/><path class="i" d="M528.5,873.758l14.613,48.7L440.836,966.291l-52.322-24.353-39.409,3.757-68.97-32.977-24.353-38.96,9.74-34.092,20.865,24.352L367.8,907.851l53.572-43.832Z" transform="translate(-226.541 -454.924)"/><path class="h" d="M336.245,865.069l-4.867,38.96-24.353-38.96V830.982Z" transform="translate(-307.008 -494.934)"/><path class="g" d="M371.72,821.428l19.48,29.22-63.313,48.7-33.022-38.556,18.409-39.363Z" transform="translate(-293.784 -538.953)"/></g></g><path class="j" d="M2506.266,152.914H2357.1V255.126h94.291l24.857,19.982-.364-19.982h30.381Z" transform="translate(-1552.959 239.446)"/><text class="k" transform="translate(834 454)"><tspan x="0" y="0">Hello!</tspan></text></g></svg>