<svg xmlns="http://www.w3.org/2000/svg" width="123.01" height="133.352" viewBox="0 0 123.01 133.352"><defs><style>.a{opacity:0.15;}.b{fill:#a61e1e;}.c{fill:#e6797c;}.d{fill:#c1292d;}.e{fill:#bd1c1f;}.f{fill:#cc4a46;}.g{fill:#c2151f;}</style></defs><g class="a" transform="translate(-2.989 14.449) rotate(-13)"><path class="b" d="M1933.632,279.269,1967.5,243.58l27.3,20.456-25.158,10.242-23.67,14.113Z" transform="translate(-1930.564 -243.58)"/><path class="c" d="M1958.543,257.848l26.12-9.833,19.358,43.649-26.8-5.436Z" transform="translate(-1892.303 -236.77)"/><path class="d" d="M1974.8,253.259l-25.065,9.788-3.634,11.7,18.068,37.568,23.544-27.38,2.162-9.965Z" transform="translate(-1911.404 -228.715)"/><path class="e" d="M1955.162,258.6l-16.242,10.732,27.39,73.985,7.3-36-19.4-38.663Z" transform="translate(-1922.438 -220.516)"/><path class="f" d="M1984.257,263.831l-1.407,6.937-24.654,27.5-7.255,35.763,52.684-39.788Z" transform="translate(-1903.978 -212.478)"/><path class="d" d="M1965.617,264.516l26.8,5.436-8.965,20.88Z" transform="translate(-1881.434 -211.426)"/><path class="g" d="M1934.723,259.142l9.89,6.669,27.9,75.9-40.088-71.221Z" transform="translate(-1932.421 -219.68)"/></g></svg>