<svg xmlns="http://www.w3.org/2000/svg" width="65" height="65" viewBox="0 0 65 65"><defs><style>.a{fill:#eaf0eb;stroke:#bfdfb7;}.b{fill:#54a560;}</style></defs><g transform="translate(0.273 0.5)"><circle class="a" cx="32" cy="32" r="32" transform="translate(0.227)"/><g transform="translate(14.672 16.255)"><g transform="translate(1.055 2.779)"><path class="b" d="M7.486,28.862H4.842a3.79,3.79,0,0,1-3.787-3.786V6.566A3.79,3.79,0,0,1,4.842,2.779H7.486a3.791,3.791,0,0,1,3.787,3.787v18.51A3.791,3.791,0,0,1,7.486,28.862ZM4.842,4.843A1.724,1.724,0,0,0,3.119,6.566v18.51A1.724,1.724,0,0,0,4.842,26.8H7.486a1.725,1.725,0,0,0,1.723-1.722V6.566A1.725,1.725,0,0,0,7.486,4.843Z" transform="translate(-1.055 -2.779)"/></g><g transform="translate(4.549 6.565)"><rect class="b" width="3.23" height="11.459"/></g><g transform="translate(4.549 22.727)"><circle class="b" cx="1.615" cy="1.615" r="1.615"/></g><g transform="translate(12.848 2.779)"><path class="b" d="M7.486,28.862H4.842a3.79,3.79,0,0,1-3.787-3.786V6.566A3.79,3.79,0,0,1,4.842,2.779H7.486a3.791,3.791,0,0,1,3.787,3.787v18.51A3.791,3.791,0,0,1,7.486,28.862ZM4.842,4.843A1.724,1.724,0,0,0,3.119,6.566v18.51A1.724,1.724,0,0,0,4.842,26.8H7.486a1.725,1.725,0,0,0,1.723-1.722V6.566A1.725,1.725,0,0,0,7.486,4.843Z" transform="translate(-1.055 -2.779)"/></g><g transform="translate(16.342 6.565)"><rect class="b" width="3.23" height="11.459" transform="translate(0)"/></g><g transform="translate(16.342 22.727)"><circle class="b" cx="1.615" cy="1.615" r="1.615" transform="translate(0)"/></g><g transform="translate(24.641 2.779)"><path class="b" d="M7.486,28.862H4.842a3.79,3.79,0,0,1-3.787-3.786V6.566A3.79,3.79,0,0,1,4.842,2.779H7.486a3.791,3.791,0,0,1,3.787,3.787v18.51A3.791,3.791,0,0,1,7.486,28.862ZM4.842,4.843A1.724,1.724,0,0,0,3.119,6.566v18.51A1.724,1.724,0,0,0,4.842,26.8H7.486a1.725,1.725,0,0,0,1.723-1.722V6.566A1.725,1.725,0,0,0,7.486,4.843Z" transform="translate(-1.055 -2.779)"/></g><g transform="translate(28.135 6.565)"><rect class="b" width="3.23" height="11.459" transform="translate(0)"/></g><g transform="translate(28.135 22.727)"><circle class="b" cx="1.615" cy="1.615" r="1.615" transform="translate(0)"/></g></g></g></svg>