<svg xmlns="http://www.w3.org/2000/svg" width="777.488" height="618.48" viewBox="0 0 777.488 618.48"><defs><style>.a{opacity:0.189;}.b{fill:#fff;}.c{fill:#e8e8e8;}.d{fill:#d9d9d9;}.e{fill:#c3c3c3;}.f{fill:#cdcdcd;}.g{fill:#b8b8b8;}</style></defs><g class="a" transform="translate(-197.592 -771.052)"><path class="b" d="M468.53,771.052,274.163,947.746l-76.571,170.808,41.232,135.469,164.915,82.457,100.13,23.559,82.457-25.092,129.582,54.585,63.306-29.479,47.661,4.543,83.413-39.883L975.08,1218.7v-58.9l-23.559-53.011L886.73,1059.67,757.154,812.291Z" transform="translate(0 0)"/><path class="c" d="M238.413,771.052l282.711,41.232,53.011,100.13-75.689-58.132-46.284,54.253Z" transform="translate(236.01 0)"/><path class="d" d="M327.709,785.818l-58.9,70.678,42.358,59.929,87.218-6.924,11.78-58.9Z" transform="translate(411.759 85.371)"/><path class="e" d="M301.435,798.846l-11.78,35.339,53.012,41.232Z" transform="translate(532.27 160.694)"/><path class="f" d="M331.485,803.189l-76.571,47.118,53.012,11.779,70.678-5.893.217-38.282Z" transform="translate(331.412 185.803)"/><path class="f" d="M265.411,772.791,477.444,908.1l-17.123,23.735,35.99,47.118-36.533-11.779-153.135,94.264L232.724,920.08Z" transform="translate(203.119 10.054)"/><path class="d" d="M391.47,772.791,208.883,937.706,359.861,920.04Z" transform="translate(65.28 10.054)"/><path class="g" d="M426.166,796.241l-157.9,17.666L197.593,972.935,238.825,1108.4l164.914,82.458,100.13,23.559,76.571-23.559,17.666-64.784Z" transform="translate(0.006 145.633)"/><path class="e" d="M244.492,847.213l62.2-35.339,55.609,11.78,76.571-5.344L409.42,881.535l29.452,101.154,23.559,35.332L338.742,1029.8Z" transform="translate(271.156 236.016)"/><path class="c" d="M274.89,814.2l1.132,38.852,122.557,90.724,29.452-41.232,74.462,4.679L361.436,805.359Z" transform="translate(446.905 198.348)"/><path class="f" d="M297.08,814.479l-26.536,53.012L297.08,964.7l32.362,44.142,53.012,41.232,88.351-44.467,35.339-37.977Z" transform="translate(421.778 251.077)"/><path class="g" d="M273.456,880.9l-17.673,58.9,123.689,53.011,63.279-29.452,47.661,4.544,83.413-39.883L603.278,880.9,591.5,839.666l-25.234,29.452L467.809,922.13l-64.791-53.011Z" transform="translate(336.436 396.697)"/><path class="f" d="M307.025,872.207l5.887,47.118,29.452-47.118V830.982Z" transform="translate(632.696 346.49)"/><path class="e" d="M318.425,821.428l-23.559,35.339,76.571,58.9,39.937-46.63L389.11,821.428Z" transform="translate(562.398 291.253)"/></g></svg>