<svg xmlns="http://www.w3.org/2000/svg" xmlns:xlink="http://www.w3.org/1999/xlink" width="182" height="57" viewBox="0 0 182 57"><defs><style>.a,.b,.i{fill:#fff;}.a{stroke:#fff;stroke-miterlimit:10;stroke-width:0.2px;}.c{fill:url(#a);}.d{fill:url(#b);}.e{fill:url(#c);}.f{fill:url(#d);}.g{opacity:0.2;}.g,.h,.i{isolation:isolate;}.h{opacity:0.12;}.i{opacity:0.25;}</style><linearGradient id="a" x1="0.915" y1="6.614" x2="-0.383" y2="5.945" gradientUnits="objectBoundingBox"><stop offset="0" stop-color="#00a0ff"/><stop offset="0.007" stop-color="#00a1ff"/><stop offset="0.26" stop-color="#00beff"/><stop offset="0.512" stop-color="#00d2ff"/><stop offset="0.76" stop-color="#00dfff"/><stop offset="1" stop-color="#00e3ff"/></linearGradient><linearGradient id="b" x1="1.076" y1="17.098" x2="-1.305" y2="17.098" gradientUnits="objectBoundingBox"><stop offset="0" stop-color="#ffe000"/><stop offset="0.409" stop-color="#ffbd00"/><stop offset="0.775" stop-color="orange"/><stop offset="1" stop-color="#ff9c00"/></linearGradient><linearGradient id="c" x1="0.862" y1="10.863" x2="-0.501" y2="9.093" gradientUnits="objectBoundingBox"><stop offset="0" stop-color="#ff3a44"/><stop offset="1" stop-color="#c31162"/></linearGradient><linearGradient id="d" x1="-0.188" y1="13.583" x2="0.421" y2="12.793" gradientUnits="objectBoundingBox"><stop offset="0" stop-color="#32a071"/><stop offset="0.068" stop-color="#2da771"/><stop offset="0.476" stop-color="#15cf74"/><stop offset="0.801" stop-color="#06e775"/><stop offset="1" stop-color="#00f076"/></linearGradient></defs><rect width="182" height="57" rx="6"/><g transform="translate(55.574 10.56)"><path class="a" d="M59.57,21.441a3.67,3.67,0,0,1-1.009,2.714,3.94,3.94,0,0,1-2.986,1.2,4.187,4.187,0,0,1-4.223-4.246,4.187,4.187,0,0,1,4.223-4.246,4.208,4.208,0,0,1,1.669.34,3.344,3.344,0,0,1,1.271.909l-.714.714a2.75,2.75,0,0,0-2.226-.963,3.144,3.144,0,0,0-3.157,3.246,3.2,3.2,0,0,0,5.427,2.34,2.563,2.563,0,0,0,.681-1.647H55.575v-.975h3.94A3.465,3.465,0,0,1,59.57,21.441Z" transform="translate(-51.352 -16.866)"/><path class="a" d="M63.271,18h-3.7v2.578h3.338v.975H59.568v2.578h3.7v1H58.525V17h4.746Z" transform="translate(-48.807 -16.818)"/><path class="a" d="M66.147,25.129H65.1V18H62.832V17h5.586v1H66.147Z" transform="translate(-47.278 -16.818)"/><path class="a" d="M69.938,25.129V17h1.043v8.129Z" transform="translate(-44.757 -16.818)"/><path class="a" d="M75,25.129H73.952V18H71.681V17h5.586v1H75Z" transform="translate(-44.138 -16.818)"/><path class="a" d="M85.484,24.127a4.221,4.221,0,0,1-5.96,0,4.393,4.393,0,0,1,0-6.029,4.208,4.208,0,0,1,5.955.005,4.379,4.379,0,0,1,.005,6.024Zm-5.189-.681a3.127,3.127,0,0,0,4.417,0,3.182,3.182,0,0,0,.9-2.333,3.182,3.182,0,0,0-.9-2.333,3.127,3.127,0,0,0-4.417,0,3.186,3.186,0,0,0-.9,2.333A3.186,3.186,0,0,0,80.295,23.445Z" transform="translate(-41.781 -16.866)"/><path class="a" d="M85.575,25.129V17h1.272L90.8,23.323h.045L90.8,21.757V17h1.045v8.129H90.753L86.62,18.5h-.045l.045,1.568v5.063Z" transform="translate(-39.208 -16.818)"/></g><path class="b" d="M87.75,33.422a5.762,5.762,0,1,0,5.784,5.762A5.679,5.679,0,0,0,87.75,33.422Zm0,9.254A3.5,3.5,0,1,1,91,39.184,3.334,3.334,0,0,1,87.75,42.675ZM75.132,33.422a5.762,5.762,0,1,0,5.784,5.762A5.68,5.68,0,0,0,75.132,33.422Zm0,9.254a3.5,3.5,0,1,1,3.252-3.491A3.334,3.334,0,0,1,75.132,42.675ZM60.122,35.19v2.444h5.849a5.1,5.1,0,0,1-1.33,3.077,5.989,5.989,0,0,1-4.518,1.79,6.5,6.5,0,0,1,0-13.008,6.232,6.232,0,0,1,4.409,1.746l1.725-1.725a8.529,8.529,0,0,0-6.133-2.467,8.95,8.95,0,1,0,0,17.9,8.178,8.178,0,0,0,6.242-2.511,8.078,8.078,0,0,0,2.118-5.719,7.9,7.9,0,0,0-.131-1.527Zm61.385,1.9a5.356,5.356,0,0,0-4.933-3.666,5.475,5.475,0,0,0-5.434,5.762,5.639,5.639,0,0,0,5.719,5.762,5.731,5.731,0,0,0,4.8-2.554l-1.965-1.31a3.292,3.292,0,0,1-2.837,1.593,2.933,2.933,0,0,1-2.8-1.745l7.7-3.188Zm-7.858,1.921a3.161,3.161,0,0,1,3.012-3.361A2.229,2.229,0,0,1,118.8,36.87ZM107.386,44.6h2.531V27.658h-2.531Zm-4.149-9.888h-.087a3.994,3.994,0,0,0-3.033-1.287,5.767,5.767,0,0,0,0,11.524,3.926,3.926,0,0,0,3.033-1.31h.087v.831c0,2.2-1.177,3.383-3.077,3.383a3.189,3.189,0,0,1-2.9-2.053l-2.2.917a5.491,5.491,0,0,0,5.108,3.4c2.968,0,5.479-1.746,5.479-6V33.77h-2.4Zm-2.9,7.966a3.5,3.5,0,0,1,0-6.984,3.247,3.247,0,0,1,3.077,3.514A3.219,3.219,0,0,1,100.335,42.675Zm33.032-15.016H127.31V44.6h2.527V38.18h3.531a5.268,5.268,0,1,0,0-10.52Zm.065,8.163h-3.6V30.017h3.6a2.9,2.9,0,1,1,0,5.805Zm15.624-2.432a4.749,4.749,0,0,0-4.512,2.592l2.245.938a2.4,2.4,0,0,1,2.31-1.242,2.434,2.434,0,0,1,2.658,2.18v.173a5.592,5.592,0,0,0-2.637-.653c-2.418,0-4.881,1.329-4.881,3.813,0,2.267,1.983,3.727,4.205,3.727a3.567,3.567,0,0,0,3.226-1.657h.087v1.307h2.44V38.074C154.2,35.068,151.954,33.39,149.056,33.39Zm-.3,9.282c-.829,0-1.983-.413-1.983-1.437,0-1.307,1.437-1.809,2.68-1.809a4.51,4.51,0,0,1,2.31.566A3.064,3.064,0,0,1,148.752,42.672Zm14.337-8.912-2.9,7.343H160.1L157.1,33.76h-2.723l4.51,10.263-2.571,5.709h2.637L165.9,33.76ZM140.318,44.6h2.528V27.659h-2.528Z" transform="translate(4.112 -2.693)"/><g transform="translate(13.06 10.932)"><path class="c" d="M20.6,17.564a2.719,2.719,0,0,0-.626,1.9V49.431a2.717,2.717,0,0,0,.626,1.9l.1.1L37.484,34.647v-.4L20.7,17.465Z" transform="translate(-19.973 -17.025)"/><path class="d" d="M38.493,37.315l-5.6-5.6v-.4l5.6-5.6.126.073,6.629,3.766c1.893,1.076,1.893,2.836,0,3.911l-6.629,3.766Z" transform="translate(-15.387 -14.095)"/><path class="e" d="M43.043,35.724,37.32,30,20.435,46.886c.625.661,1.656.742,2.817.083L43.043,35.724" transform="translate(-19.809 -12.577)"/><path class="f" d="M43.043,28.842,23.252,17.6c-1.161-.66-2.192-.579-2.817.083L37.32,34.564Z" transform="translate(-19.809 -17.14)"/><g transform="translate(0 23.021)"><path class="g" d="M42.917,34.132,23.252,45.305a2.256,2.256,0,0,1-2.715.015h0l-.1.1h0l.1.1h0a2.256,2.256,0,0,0,2.715-.015L43.043,34.258Z" transform="translate(-19.809 -34.132)"/><path class="h" d="M20.6,42.817a2.717,2.717,0,0,1-.626-1.9v.2a2.713,2.713,0,0,0,.626,1.9l.1-.1Z" transform="translate(-19.973 -31.726)"/></g><path class="h" d="M43.784,31.76,37.029,35.6l.126.126,6.629-3.766A2.378,2.378,0,0,0,45.2,30h0A2.521,2.521,0,0,1,43.784,31.76Z" transform="translate(-13.921 -12.577)"/><path class="i" d="M23.416,17.794,49.836,32.806a2.521,2.521,0,0,1,1.42,1.759h0a2.375,2.375,0,0,0-1.42-1.956L23.416,17.6c-1.894-1.076-3.443-.182-3.443,1.986v.2C19.973,17.613,21.522,16.718,23.416,17.794Z" transform="translate(-19.973 -17.14)"/></g></svg>