<svg xmlns="http://www.w3.org/2000/svg" width="65" height="65" viewBox="0 0 65 65"><defs><style>.a{fill:#eaf0eb;stroke:#bfdfb7;}.b{fill:none;stroke-linecap:round;stroke-linejoin:round;}.c,.d{stroke:none;}.d{fill:#54a560;}</style></defs><g transform="translate(0.273 0.5)"><circle class="a" cx="32" cy="32" r="32" transform="translate(0.227)"/><g class="b" transform="translate(19.437 22.466)"><path class="c" d="M12.79,21.926a.855.855,0,0,1-.628-.257L3.254,13.076a4.729,4.729,0,0,1-.392-.371q-.249-.257-.792-.935A12.607,12.607,0,0,1,1.1,10.378,8.676,8.676,0,0,1,.335,8.651,6.23,6.23,0,0,1,0,6.681,6.548,6.548,0,0,1,1.813,1.77,6.867,6.867,0,0,1,6.824,0,5.685,5.685,0,0,1,8.629.307a7.332,7.332,0,0,1,1.713.828q.793.521,1.363.978a13.451,13.451,0,0,1,1.085.971,13.135,13.135,0,0,1,1.085-.971q.571-.457,1.364-.978A7.314,7.314,0,0,1,16.952.307,5.687,5.687,0,0,1,18.757,0a6.866,6.866,0,0,1,5.01,1.77A6.548,6.548,0,0,1,25.58,6.681q0,3.155-3.269,6.424L13.418,21.67a.855.855,0,0,1-.628.257Z"/><path class="d" d="M 12.78965950012207 21.92696189880371 C 13.03693962097168 21.92696189880371 13.24631977081299 21.84122085571289 13.41780948638916 21.66973114013672 L 22.31138038635254 13.10445117950439 C 24.4904899597168 10.9253511428833 25.58003997802734 8.784140586853027 25.58003997802734 6.680840969085693 C 25.58003997802734 4.587010860443115 24.97580909729004 2.950080871582031 23.76735877990723 1.770040988922119 C 22.55889892578125 0.590010941028595 20.88880920410156 9.494018513578339e-07 18.757080078125 9.494018513578339e-07 C 18.16777992248535 9.494018513578339e-07 17.56616020202637 0.1023209467530251 16.95221900939941 0.3069709539413452 C 16.33827972412109 0.5116109251976013 15.76721954345703 0.7875609397888184 15.2390193939209 1.134790897369385 C 14.71082973480225 1.482020974159241 14.2562894821167 1.80794095993042 13.87541961669922 2.11254096031189 C 13.49454975128174 2.417140960693359 13.13286972045898 2.740690946578979 12.79036998748779 3.08319091796875 C 12.44692993164062 2.740690946578979 12.08523941040039 2.417140960693359 11.70531940460205 2.11254096031189 C 11.32539939880371 1.80794095993042 10.87110996246338 1.482020974159241 10.34243965148926 1.134790897369385 C 9.813769340515137 0.7875609397888184 9.24269962310791 0.5116109251976013 8.629240036010742 0.3069709539413452 C 8.015769958496094 0.1023209467530251 7.413919448852539 9.494018513578339e-07 6.823659896850586 9.494018513578339e-07 C 4.691459655761719 9.494018513578339e-07 3.021129608154297 0.590010941028595 1.812679648399353 1.770051002502441 C 0.6042296886444092 2.950080871582031 -3.369140699760464e-07 4.587010860443115 -3.369140699760464e-07 6.680840969085693 C -0.0004703369049821049 7.317990779876709 0.1113196611404419 7.974560737609863 0.3353896737098694 8.650550842285156 C 0.5594596862792969 9.326550483703613 0.8140796422958374 9.902351379394531 1.099259614944458 10.37797069549561 C 1.384439706802368 10.85358047485352 1.707989692687988 11.31758117675781 2.069909572601318 11.76999092102051 C 2.431829690933228 12.22239112854004 2.695929765701294 12.53409099578857 2.862199544906616 12.70510101318359 C 3.02847957611084 12.87612056732178 3.159219741821289 12.99976062774658 3.25443959236145 13.07602119445801 L 12.1622200012207 21.66903114318848 C 12.33370971679688 21.84051132202148 12.54308986663818 21.92625045776367 12.79036998748779 21.92625045776367 L 12.78965950012207 21.92696189880371 M 12.78965950012207 23.92696189880371 C 12.75791263580322 23.92696189880371 12.72627067565918 23.92620849609375 12.69478988647461 23.92472267150879 C 11.96522521972656 23.90134620666504 11.28385448455811 23.61070442199707 10.76473808288574 23.09983444213867 L 1.919406533241272 14.56706714630127 C 1.7773677110672 14.44638919830322 1.61878514289856 14.29526996612549 1.428249716758728 14.0993013381958 C 1.212079644203186 13.87697124481201 0.9197196364402771 13.53382110595703 0.5081696510314941 13.01938056945801 C 0.09203965961933136 12.49920082092285 -0.2861903309822083 11.95654106140137 -0.6160203218460083 11.40647125244141 C -0.9752703309059143 10.8073205947876 -1.293890357017517 10.09181118011475 -1.563040375709534 9.279810905456543 C -1.853610396385193 8.403201103210449 -2.000630378723145 7.528280735015869 -2.000000238418579 6.679360866546631 C -2.000000238418579 4.037820816040039 -1.187340378761292 1.90415096282959 0.4153896570205688 0.339110940694809 C 2.004879713058472 -1.213008999824524 4.160929679870605 -1.999999046325684 6.823659896850586 -1.999999046325684 C 7.62667989730835 -1.999999046325684 8.447099685668945 -1.862139105796814 9.262139320373535 -1.590249061584473 C 10.03673934936523 -1.331849098205566 10.76961994171143 -0.9774490594863892 11.44038963317871 -0.5368790626525879 C 11.94598388671875 -0.2048106789588928 12.39919185638428 0.1168230399489403 12.79052829742432 0.4212025105953217 C 13.18216609954834 0.1171002015471458 13.63525009155273 -0.2043691277503967 14.1403694152832 -0.5364290475845337 C 14.81101989746094 -0.9772990345954895 15.54428005218506 -1.33190906047821 16.31978034973145 -1.590399026870728 C 17.13512992858887 -1.862189054489136 17.95516014099121 -1.999999046325684 18.757080078125 -1.999999046325684 C 21.41931915283203 -1.999999046325684 23.57513999938965 -1.213008999824524 25.16464042663574 0.3390909433364868 C 26.76738929748535 1.904160976409912 27.58003997802734 4.037830829620361 27.58003997802734 6.680840969085693 C 27.58003997802734 9.324030876159668 26.2832202911377 11.96105098724365 23.72558975219727 14.5186710357666 C 23.71673011779785 14.52753067016602 23.70777893066406 14.53631114959717 23.69875907897949 14.54500102996826 L 14.81444931030273 23.10136413574219 C 14.27282238006592 23.63395690917969 13.55476188659668 23.92696189880371 12.78965950012207 23.92696189880371 Z"/></g></g></svg>