<svg xmlns="http://www.w3.org/2000/svg" width="94.24" height="79.108" viewBox="0 0 94.24 79.108"><defs><style>.a{fill:#fff;}.b{fill:#d14338;}.c{fill:none;}</style></defs><g transform="translate(-352.096 -6896.946)"><path class="a" d="M14.568,0V7.013L0,2.574,14.568,21.316V57h66V0Z" transform="matrix(-0.951, 0.309, -0.309, -0.951, 446.336, 6951.156)"/><g transform="matrix(0.951, -0.309, 0.309, 0.951, -377.744, 6672.585)"><path class="b" d="M665.136,477.754a9.929,9.929,0,0,0-14.041-.035l-.035.035-1.388,1.377-1.387-1.377a9.929,9.929,0,0,0-14.041-.035l-.035.035a9.8,9.8,0,0,0-.146,13.853c.048.048.1.1.146.145l15.461,15.375,15.467-15.38a9.794,9.794,0,0,0,.145-13.852c-.048-.049-.1-.1-.145-.146" transform="translate(0 0.842)"/><rect class="c" width="37" height="37" transform="translate(631.271 473.274)"/></g></g></svg>