<svg xmlns="http://www.w3.org/2000/svg" width="65" height="65" viewBox="0 0 65 65"><defs><style>.a{fill:#eaf0eb;stroke:#bfdfb7;}.b{fill:none;stroke:#54a560;stroke-linecap:round;stroke-miterlimit:10;stroke-width:2.25px;}</style></defs><g transform="translate(0.273 0.5)"><circle class="a" cx="32" cy="32" r="32" transform="translate(0.227)"/><path class="b" d="M5.625,32.625V4.791a.563.563,0,0,1,.281-.485c.549-.322,2.034-.931,5.344-.931,4.5,0,10.195,3.375,13.5,3.375a14.029,14.029,0,0,0,5.43-1.109.141.141,0,0,1,.195.13V21.195a.281.281,0,0,1-.168.257A14.109,14.109,0,0,1,24.75,22.5c-3.375,0-9-2.25-13.5-2.25s-5.625,1.125-5.625,1.125" transform="translate(14.358 14.5)"/></g></svg>