<svg xmlns="http://www.w3.org/2000/svg" width="65" height="65" viewBox="0 0 65 65"><defs><style>.a{fill:#eaf0eb;stroke:#bfdfb7;}.b{fill:#54a560;}</style></defs><g transform="translate(26.273 -435.5)"><circle class="a" cx="32" cy="32" r="32" transform="translate(-25.773 436)"/><path class="b" d="M18,11.963a6.766,6.766,0,0,1,5.826,10.179,6.889,6.889,0,0,1-2.46,2.428l-1.116.651V31.5h-4.5V25.221l-1.116-.651a6.816,6.816,0,0,1-3.384-5.857A6.777,6.777,0,0,1,18,11.963M19.5,2.25h-3v4.5h3Zm9.075,3.787-2.7,2.7,2.1,2.1,2.7-2.7-2.1-2.1Zm-21.149,0-2.1,2.1,2.7,2.7,2.1-2.1-2.7-2.7ZM18,9.713a9,9,0,0,0-4.5,16.8V33.75h9V26.513A9,9,0,0,0,18,9.713Zm15.75,7.5h-4.5v3h4.5Zm-27,0H2.25v3h4.5Z" transform="translate(-11.767 450.5)"/></g></svg>