<svg xmlns="http://www.w3.org/2000/svg" width="65" height="65" viewBox="0 0 65 65"><defs><style>.a{fill:#eaf0eb;stroke:#bfdfb7;}.b{fill:#54a560;}</style></defs><g transform="translate(26.273 -435.5)"><circle class="a" cx="32" cy="32" r="32" transform="translate(-25.773 436)"/><g transform="translate(-11.898 449.875)"><path class="b" d="M31.514,27.6a9.56,9.56,0,0,0,3.361-7.107,9.545,9.545,0,0,0-3.706-7.4A13.642,13.642,0,0,0,22.5,10.125a13.642,13.642,0,0,0-8.669,2.962,9.545,9.545,0,0,0-3.706,7.4,9.545,9.545,0,0,0,3.706,7.4A13.642,13.642,0,0,0,22.5,30.857c.435,0,.873-.019,1.307-.057l.742.643a14.052,14.052,0,0,0,9.2,3.432h1.125v-2.4l-.329-.329A14,14,0,0,1,31.515,27.6Zm-5.492,2.144-1.488-1.29-.5.061a12.675,12.675,0,0,1-1.538.094c-5.583,0-10.125-3.641-10.125-8.116s4.542-8.116,10.125-8.116,10.125,3.641,10.125,8.116a7.387,7.387,0,0,1-3.132,5.861l-.648.5.3.846a16.262,16.262,0,0,0,2.664,4.768A11.8,11.8,0,0,1,26.022,29.742Z"/><path class="b" d="M4.232,22.323a15.5,15.5,0,0,0,2.447-4.431l.3-.842-.647-.5a6.966,6.966,0,0,1-2.954-5.524c0-4.22,4.29-7.654,9.563-7.654,3.879,0,7.226,1.858,8.724,4.521.278-.013.558-.021.838-.021q.846,0,1.676.082a9.756,9.756,0,0,0-2.967-4.005,13.016,13.016,0,0,0-8.271-2.827A13.019,13.019,0,0,0,4.666,3.952a9.124,9.124,0,0,0-3.541,7.077A9.131,9.131,0,0,0,4.307,17.8a13.247,13.247,0,0,1-2.852,4.27l-.33.33V24.75H2.25a13.4,13.4,0,0,0,5.992-1.414,11.06,11.06,0,0,1-.356-2.367,11.161,11.161,0,0,1-3.654,1.353Z"/></g></g></svg>