<svg xmlns="http://www.w3.org/2000/svg" width="65" height="65" viewBox="0 0 65 65"><defs><style>.a{fill:#eaf0eb;stroke:#bfdfb7;}.b{fill:none;stroke:#54a560;stroke-width:2.25px;}</style></defs><g transform="translate(26.273 -435.5)"><circle class="a" cx="32" cy="32" r="32" transform="translate(-25.773 436)"/><path class="b" d="M31.881,17.986a.959.959,0,0,0-.4-.774l0-.009-3.357-1.938,1.932-3.347-.006,0a.957.957,0,0,0-.775-1.34v-.009H25.409V6.7H25.4a.956.956,0,0,0-1.341-.773l-.005-.008L20.642,7.89l-1.89-3.274-.007,0a.957.957,0,0,0-1.548,0l-.009-.005L15.267,7.944l-3.308-1.91,0,.007a.957.957,0,0,0-1.34.775h-.01v3.843H6.784v.008a.956.956,0,0,0-.773,1.341l-.008,0,1.889,3.271L4.51,17.237l0,.007a.957.957,0,0,0,0,1.548L4.51,18.8l3.357,1.938L5.935,24.086l.007,0a.957.957,0,0,0,.775,1.34v.01h3.874V29.3H10.6a.956.956,0,0,0,1.341.773l.005.008,3.413-1.971,1.89,3.274.007,0a.957.957,0,0,0,1.548,0l.008,0,1.921-3.328,3.309,1.91,0-.007a.957.957,0,0,0,1.34-.775h.01V25.343h3.821v-.008a.956.956,0,0,0,.773-1.341l.008,0-1.889-3.271,3.382-1.953,0-.007a.96.96,0,0,0,.394-.774Z" transform="translate(-11.898 449.5)"/></g></svg>