<svg xmlns="http://www.w3.org/2000/svg" width="32.009" height="31.998" viewBox="0 0 32.009 31.998"><defs><style>.a{fill:#727272;}</style></defs><path class="a" d="M19.339,16.369a3.154,3.154,0,1,0-3.155,3.141A3.151,3.151,0,0,0,19.339,16.369ZM24.025.022H8.016a7.991,7.991,0,0,0-8,7.964v2.219H11.787a7.6,7.6,0,0,1,8.794,0H32.024V7.986A7.99,7.99,0,0,0,24.025.022ZM27.265,7.6a.889.889,0,0,1-.889.885H23.629A.89.89,0,0,1,22.74,7.6V4.862a.889.889,0,0,1,.889-.885h2.746a.89.89,0,0,1,.889.885Zm-3.482,8.772a7.6,7.6,0,0,1-15.2,0,7.492,7.492,0,0,1,.722-3.214H.016v10.9a7.99,7.99,0,0,0,8,7.964h16.01a7.991,7.991,0,0,0,8-7.964v-10.9H23.061a7.5,7.5,0,0,1,.722,3.214Z" transform="translate(-0.016 -0.022)"/></svg>