<svg xmlns="http://www.w3.org/2000/svg" width="101.837" height="80.549" viewBox="0 0 101.837 80.549"><defs><style>.a{fill:#fff;}.b{fill:#f6af20;}</style></defs><g transform="translate(-943.482 -6962.814)"><path class="a" d="M14.569,57V28.483L-8.5,4.532,14.569,10.2V0h66V57Z" transform="translate(951.606 6986.369) rotate(-17)"/><g transform="translate(207.621 6676.526) rotate(-19)"><path class="b" d="M664.71,576.586a3.494,3.494,0,0,0,1.436-2.7,3.778,3.778,0,0,0-.938-2.5c-.052-.1-.094-.2-.137-.3l-.018-.094a1.12,1.12,0,0,1,.171-.86,3.77,3.77,0,0,0,.5-2.21,2.616,2.616,0,0,0-.834-2,1.641,1.641,0,0,1-.352-1.575,3.319,3.319,0,0,0-.705-3.251c-.9-1.016-1.746-1.135-3.991-1.007-1.548.094-4.772.6-6.9.929-.869.137-1.626.258-1.858.276-1.093.112-1.308,0-1.411-.422a2.783,2.783,0,0,1,.422-1.119,18.491,18.491,0,0,0,1.247-3.08,10.81,10.81,0,0,0-.233-7.755,2.813,2.813,0,0,0-2.263-1.64,3.42,3.42,0,0,0-2.4.68c-.3.344-.2,1-.534,2.306a25.058,25.058,0,0,1-1.032,3.612c-.646,1.427-3.415,3.878-4.9,5.2-.352.31-.653.576-.87.783a17.678,17.678,0,0,0-2.192,2.81,15.146,15.146,0,0,1-1.178,1.591,3.108,3.108,0,0,1-1.918.938.69.69,0,0,0-.687.688V579.6a.712.712,0,0,0,.711.714h0a13.553,13.553,0,0,1,5.712,1.016,14.854,14.854,0,0,0,3.991,1.044,82.542,82.542,0,0,0,9.686.7,42.876,42.876,0,0,0,4.869-.336c2.667-.31,5.518-.929,6.468-3.183a2.429,2.429,0,0,0-.043-2.039.662.662,0,0,1-.069-.224A.728.728,0,0,1,664.71,576.586Z" transform="translate(0)"/></g></g></svg>