<svg xmlns="http://www.w3.org/2000/svg" width="219" height="45.64" viewBox="0 0 219 45.64"><defs><style>.a{fill:#fff;}.b{fill:#bfdfb7;}.c{fill:#8fcc95;}.d{fill:#55a864;}.e{fill:#4c866c;}.f{fill:#66be76;}.g{fill:#54a560;}</style></defs><path class="a" d="M311.315,294.691l-14.454,13.04-5.694,12.605,3.066,10,12.264,6.085,7.446,1.739,6.132-1.854,9.636,4.027,4.706-2.173,3.544.335,6.2-2.943,4.818-7.824v-4.347l-1.752-3.912-4.818-3.477-9.636-18.256Z" transform="translate(-291.167 -294.691)"/><path class="b" d="M312.531,294.691l21.024,3.043,3.942,7.389-5.629-4.29-3.442,4.005Z" transform="translate(-291.945 -294.691)"/><path class="c" d="M332.82,302.418l-4.38,5.216,3.15,4.423,6.486-.511.876-4.347Z" transform="translate(-292.524 -295.029)"/><path class="d" d="M340.225,309.236l-.876,2.608,3.942,3.043Z" transform="translate(-292.921 -295.327)"/><path class="e" d="M326.861,311.509l-5.694,3.477,3.942.869,5.256-.435.016-2.825Z" transform="translate(-292.259 -295.426)"/><path class="f" d="M311.985,295.6l15.768,9.986-1.274,1.75,2.676,3.477-2.717-.869L315.051,316.9l-5.5-10.432Z" transform="translate(-291.837 -294.73)"/><path class="c" d="M310.654,295.6,297.076,307.77l11.228-1.3Z" transform="translate(-291.382 -294.73)"/><path class="e" d="M308.165,307.873l-11.742,1.3-5.256,11.736,3.066,10L306.5,337l7.446,1.739L319.637,337l1.314-4.781Z" transform="translate(-291.167 -295.267)"/><path class="d" d="M315.713,318.662l4.625-2.608,4.135.869,5.694-.394-2.19,4.666,2.19,7.465,1.752,2.608-9.2.869Z" transform="translate(-292.061 -295.625)"/><path class="b" d="M331.622,313.3l.084,2.868,9.114,6.7,2.19-3.043,5.538.345-10.488-7.517Z" transform="translate(-292.64 -295.476)"/><path class="f" d="M331.322,317.418l-1.973,3.912,1.973,7.174,2.407,3.258,3.942,3.043,6.57-3.282,2.628-2.8Z" transform="translate(-292.557 -295.685)"/><path class="e" d="M322.936,333.642l-1.314,4.347,9.2,3.912,4.706-2.173,3.544.335,6.2-2.943,2.19-3.477-.876-3.043-1.876,2.173-7.322,3.912-4.818-3.912Z" transform="translate(-292.276 -296.261)"/><path class="f" d="M348.44,329.1l.438,3.477,2.19-3.477v-3.043Z" transform="translate(-293.252 -296.062)"/><path class="d" d="M343.828,321.054l-1.752,2.608,5.694,4.347,2.97-3.441-1.656-3.513Z" transform="translate(-293.021 -295.844)"/><g transform="translate(76.798 11.6)"><path class="g" d="M375.881,320.884c0,5.88,4.06,9.663,10.275,9.663a16.767,16.767,0,0,0,4.932-.7V324.3H384V320.02h11.891v12.5c-2.61,1.687-5.718,2.426-9.9,2.426-9.2,0-15.123-5.509-15.123-14.062s5.925-14.063,15.123-14.063c4.185,0,7.292.741,9.9,2.426v5.387h-.249a13.055,13.055,0,0,0-9.488-3.413C379.94,311.221,375.881,315,375.881,320.884Z" transform="translate(-370.867 -306.821)"/><path class="g" d="M405.528,326.6c.539,3.084,3.19,4.892,7.044,4.892a9.912,9.912,0,0,0,7-2.507h.207V333.3a12.353,12.353,0,0,1-7.375,2.014c-6.794,0-11.352-4.03-11.352-10.032a9.676,9.676,0,0,1,10.11-10.074c6.007,0,9.819,3.618,9.819,9.252V326.6Zm0-3.248h11.394c-.372-2.632-2.61-4.318-5.634-4.318A5.7,5.7,0,0,0,405.528,323.348Z" transform="translate(-371.966 -307.188)"/><path class="g" d="M456.07,323.511V334.9h-4.392V323.964c0-3.166-1.41-4.852-4.02-4.852-2.941,0-4.474,1.932-4.474,5.838V334.9h-4.392V323.964c0-3.166-1.41-4.852-4.062-4.852-2.9,0-4.432,1.932-4.432,5.51V334.9h-4.393V315.617h3.646l.124,2.8h.083c1.16-2.1,3.191-3.206,6.092-3.206a6.4,6.4,0,0,1,6.048,3.454h.083c1.2-2.3,3.355-3.454,6.8-3.454C453.46,315.206,456.07,318.208,456.07,323.511Z" transform="translate(-372.871 -307.188)"/><path class="g" d="M492.362,323.511V334.9h-4.393V323.964c0-3.166-1.408-4.852-4.018-4.852-2.942,0-4.475,1.932-4.475,5.838V334.9h-4.393V323.964c0-3.166-1.408-4.852-4.06-4.852-2.9,0-4.434,1.932-4.434,5.51V334.9H462.2V315.617h3.646l.124,2.8h.083c1.16-2.1,3.19-3.206,6.091-3.206a6.405,6.405,0,0,1,6.049,3.454h.083c1.2-2.3,3.356-3.454,6.8-3.454C489.752,315.206,492.362,318.208,492.362,323.511Z" transform="translate(-374.192 -307.188)"/><path class="g" d="M514.022,334.9l-.124-2.755h-.083a8.263,8.263,0,0,1-7,3.165c-5.552,0-9.613-4.194-9.613-10.032s4.061-10.074,9.613-10.074a8.182,8.182,0,0,1,6.961,3.165h.083l.166-2.754h3.645V334.9Zm-.621-9.622c0-3.66-2.4-6.168-5.885-6.168s-5.884,2.508-5.884,6.168a5.889,5.889,0,1,0,11.768,0Z" transform="translate(-375.466 -307.188)"/></g></svg>