<svg xmlns="http://www.w3.org/2000/svg" width="19.768" height="17.966" viewBox="0 0 19.768 17.966"><defs><style>.a{fill:#66be76;}</style></defs><g transform="translate(-477.828 -471.032)"><path class="a" d="M478.924,479.834l-1.1,3.9,1.873,1.937,3.5.389.778-3.112-1.5-2.383Z" transform="translate(0 -2.506)"/><path class="a" d="M484.842,471.032l-2.248,3.368,1.182,2.421,3.209,1.453,1.7-2.719-.69-2.731Z" transform="translate(-1.357 0)"/><path class="a" d="M496.23,471.032l2.248,3.368-1.182,2.421-3.209,1.453-1.7-2.719.691-2.731Z" transform="translate(-4.144 0)"/><path class="a" d="M501.921,479.834l1.1,3.9-1.873,1.937-3.5.389-.778-3.112,1.5-2.383Z" transform="translate(-5.42 -2.506)"/><path class="a" d="M486.621,483.433h4.086l1.645,4.961h3.877l-.447,2.968-1.945,1.167-5.467-1.387-5.037,1.387-1.945-1.167-.37-3.008,4.047-.086Z" transform="translate(-0.908 -3.531)"/></g></svg>