<svg xmlns="http://www.w3.org/2000/svg" width="65" height="65" viewBox="0 0 65 65"><defs><style>.a{fill:#eaf0eb;stroke:#bfdfb7;}.b{fill:#54a560;}</style></defs><g transform="translate(0.273 0.5)"><circle class="a" cx="32" cy="32" r="32" transform="translate(0.227)"/><g transform="translate(17.803 20.193)"><g transform="translate(0)"><path class="b" d="M478.411,914.29H460.188a4.052,4.052,0,0,0-4.048,4.048V931.5a4.045,4.045,0,0,0,4.048,4.048h9.8v-2.019h-9.8a2.032,2.032,0,0,1-2.03-2.03V918.338a2.023,2.023,0,0,1,2.03-2.019h18.223a2.023,2.023,0,0,1,2.03,2.019v6.1h2.03v-6.1A4.062,4.062,0,0,0,478.411,914.29Z" transform="translate(-456.14 -914.29)"/><path class="b" d="M472.176,921.931l-2.556,2.315-.241.219-8.162-6.956-1.306,1.547,9.512,8.1.2-.175,5.562-5.047,3.225-2.918-1.36-1.5Z" transform="translate(-455.774 -913.977)"/></g><path class="b" d="M483.638,934.894h0a3.2,3.2,0,0,0-2.274.962l-3.657-2.285a2.9,2.9,0,0,0,0-1.158l3.658-2.287a3.208,3.208,0,1,0,.259-4.756,3.193,3.193,0,0,0-1.191,2.519,3.118,3.118,0,0,0,.06.573l-3.658,2.289a3.207,3.207,0,0,0-4.8,4.238,3.186,3.186,0,0,0,2.15,1.19,3.133,3.133,0,0,0,2.355-.674,3.245,3.245,0,0,0,.3-.268l3.658,2.289a3.122,3.122,0,0,0-.06.576,3.207,3.207,0,1,0,3.208-3.207Zm0,4.542a1.335,1.335,0,1,1,1.334-1.335A1.336,1.336,0,0,1,483.638,939.436Zm0-10.219a1.333,1.333,0,1,1,1.334-1.333A1.335,1.335,0,0,1,483.638,929.217Zm-7.749,3.776a1.334,1.334,0,1,1-1.334-1.335A1.336,1.336,0,0,1,475.889,932.993Z" transform="translate(-454.665 -913.283)"/></g></g></svg>