<svg xmlns="http://www.w3.org/2000/svg" width="65" height="65" viewBox="0 0 65 65"><defs><style>.a{fill:#eaf0eb;stroke:#bfdfb7;}.b{fill:#54a560;}.c{fill:none;stroke:#54a560;stroke-linecap:round;stroke-linejoin:round;stroke-width:1.75px;}</style></defs><g transform="translate(0.273 0.5)"><circle class="a" cx="32" cy="32" r="32" transform="translate(0.227)"/><g transform="translate(7.769 15.139)"><path class="b" d="M399.319,745.958v-2.065H388.874a5.023,5.023,0,0,0-5,5v15.8a5.029,5.029,0,0,0,5,5h15.8a5.029,5.029,0,0,0,5-5v-9.109l-2.1.006V764.7a2.915,2.915,0,0,1-2.9,2.9h-15.8a2.917,2.917,0,0,1-2.9-2.9V748.9a2.916,2.916,0,0,1,2.9-2.9Z" transform="translate(-371.875 -739.551)"/><path class="c" d="M394.4,753.509a13.908,13.908,0,0,0-.65,3.632c1.376-2.259,4.072-5.527,8.164-5.527h.555v4.339l.061.017a.562.562,0,0,0,.14.017.171.171,0,0,0,.126-.049l7.189-5.637a.563.563,0,0,0,.083-.307.455.455,0,0,0-.129-.341l-7.151-5.6a.132.132,0,0,0-.1-.04.707.707,0,0,0-.149.019c-.03.008-.053.016-.072.022v4.309l-.561-.007h-.111a8.878,8.878,0,0,0-3.1.555A7.078,7.078,0,0,0,394.4,753.509Z" transform="translate(-371.236 -739.543)"/></g></g></svg>