<svg xmlns="http://www.w3.org/2000/svg" width="98.259" height="107.155" viewBox="0 0 98.259 107.155"><defs><style>.a{opacity:0.15;}.b{fill:#a61e1e;}.c{fill:#e6797c;}.d{fill:#c1292d;}.e{fill:#bd1c1f;}.f{fill:#cc4a46;}.g{fill:#c2151f;}</style></defs><g class="a" transform="translate(-2.444 9.946) rotate(-11)"><path class="b" d="M1933.632,272.542l27.483-28.962,22.151,16.6-20.416,8.312-19.208,11.453Z" transform="translate(-1931.142 -243.58)"/><path class="c" d="M1958.543,255.994l21.2-7.98,15.709,35.422-21.747-4.412Z" transform="translate(-1904.788 -238.89)"/><path class="d" d="M1969.4,253.259l-20.34,7.943-2.948,9.5,14.662,30.486,19.106-22.219,1.754-8.086Z" transform="translate(-1917.945 -233.341)"/><path class="e" d="M1952.1,258.6l-13.18,8.709,22.227,60.039,5.927-29.216-15.743-31.376Z" transform="translate(-1925.545 -227.694)"/><path class="f" d="M1977.977,263.831l-1.142,5.63-20.007,22.315L1950.94,320.8l42.753-32.288Z" transform="translate(-1912.83 -222.157)"/><path class="d" d="M1965.617,264.516l21.747,4.411-7.275,16.944Z" transform="translate(-1897.301 -221.433)"/><path class="g" d="M1934.289,259.142l8.026,5.412,22.638,61.593-32.532-57.8Z" transform="translate(-1932.421 -227.118)"/></g></svg>