<svg xmlns="http://www.w3.org/2000/svg" width="96.436" height="83.95" viewBox="0 0 96.436 83.95"><defs><style>.a{fill:#fff;}.b{fill:#57ab74;}</style></defs><g transform="translate(-925.697 -6823.135)"><path class="a" d="M14.568,57V49.988L0,54.427,14.568,35.685V0h66V57Z" transform="matrix(0.921, 0.391, -0.391, 0.921, 947.969, 6823.135)"/><g transform="translate(615.584 6116.328) rotate(25)"><path class="b" d="M648.976,510.274a17.707,17.707,0,1,0,17.707,17.707h0A17.708,17.708,0,0,0,648.976,510.274Zm-9.711,15.379c.236-3.006,2.3-5.1,4-5.1s3.763,2.092,4,5.1a.568.568,0,0,1-1.064.322l-.679-1.214a2.411,2.411,0,0,0-4.5,0l-.679,1.214a.577.577,0,0,1-1.079-.322Zm17.906,8.768a10.666,10.666,0,0,1-15.021,1.374,10.779,10.779,0,0,1-1.372-1.374,1.144,1.144,0,0,1,1.756-1.464,8.389,8.389,0,0,0,12.88,0,1.144,1.144,0,0,1,1.756,1.464Zm.443-8.446-.679-1.214a2.411,2.411,0,0,0-4.5,0l-.679,1.214a.57.57,0,0,1-1.064-.322c.236-3.006,2.3-5.1,4-5.1s3.763,2.092,4,5.1a.577.577,0,0,1-1.077.317Z"/></g></g></svg>