<svg xmlns="http://www.w3.org/2000/svg" width="65" height="65" viewBox="0 0 65 65"><defs><style>.a{fill:#eaf0eb;stroke:#bfdfb7;}.b{fill:#54a560;}</style></defs><g transform="translate(0.273 0.5)"><circle class="a" cx="32" cy="32" r="32" transform="translate(0.227)"/><g transform="translate(14.83 14.605)"><path class="b" d="M17.7,16.91a4.655,4.655,0,1,0-4.7-4.7A4.711,4.711,0,0,0,17.7,16.91Zm-.1-7.39h0A2.785,2.785,0,0,1,20.39,12.3a2.736,2.736,0,0,1-5.471,0A2.767,2.767,0,0,1,17.607,9.52Z" transform="translate(-0.402 -0.135)"/><path class="b" d="M32.35,16.6a9.5,9.5,0,0,0-6.719-2.4h-.768A6.4,6.4,0,0,1,24,16.215a9.312,9.312,0,0,1,1.632-.1,7.983,7.983,0,0,1,5.087,1.536v6.91h1.92V16.887L32.35,16.6Z" transform="translate(-0.844 -0.4)"/><path class="b" d="M23.344,7.659a2.344,2.344,0,0,1,4.319,1.824,2.4,2.4,0,0,1-2.112,1.44,1.633,1.633,0,0,1-.672-.1,6.8,6.8,0,0,1,.1,1.344v.576c.192,0,.384.1.576.1a4.271,4.271,0,1,0,.1-8.542A4.116,4.116,0,0,0,22,6.412a4.1,4.1,0,0,1,1.344,1.248Z" transform="translate(-0.764 -0.002)"/><path class="b" d="M11.638,16.315a6.4,6.4,0,0,1-.864-2.016h-.768a9.876,9.876,0,0,0-6.719,2.3L3,16.891v7.678H4.92v-6.91a8.159,8.159,0,0,1,5.087-1.536A8.452,8.452,0,0,1,11.638,16.315Z" transform="translate(0 -0.404)"/><path class="b" d="M10.121,12.744a1.217,1.217,0,0,0,.576-.1v-.576a5.9,5.9,0,0,1,.1-1.344,1.633,1.633,0,0,1-.672.1,2.3,2.3,0,1,1,0-4.607,2.425,2.425,0,0,1,2.208,1.44,9.555,9.555,0,0,1,1.44-1.344,4.263,4.263,0,1,0-3.647,6.431Z" transform="translate(-0.114)"/><path class="b" d="M25.453,22.551l-.192-.288A9.687,9.687,0,0,0,17.774,19a9.887,9.887,0,0,0-7.582,3.263L10,22.551v7.294a1.618,1.618,0,0,0,1.632,1.632H23.917a1.682,1.682,0,0,0,1.632-1.632V22.551Zm-1.92,7.006H11.92V23.223a8.191,8.191,0,0,1,5.855-2.3,7.741,7.741,0,0,1,5.759,2.3Z" transform="translate(-0.281 -0.593)"/></g></g></svg>