<svg xmlns="http://www.w3.org/2000/svg" width="32" height="25.995" viewBox="0 0 32 25.995"><defs><style>.a{fill:#727272;}</style></defs><path class="a" d="M32,3.079a13.294,13.294,0,0,1-3.28,3.39q.02.376.02.85a18.858,18.858,0,0,1-3.113,10.323,19.945,19.945,0,0,1-3.758,4.275,16.753,16.753,0,0,1-5.243,2.97,19.149,19.149,0,0,1-6.562,1.108A18.273,18.273,0,0,1,0,23.045a14.2,14.2,0,0,0,1.566.091,12.871,12.871,0,0,0,8.154-2.812,6.37,6.37,0,0,1-3.812-1.31,6.452,6.452,0,0,1-2.317-3.249,6.562,6.562,0,0,0,2.964-.11,6.4,6.4,0,0,1-3.769-2.262,6.352,6.352,0,0,1-1.5-4.172V9.138a6.479,6.479,0,0,0,2.974.821A6.521,6.521,0,0,1,2.131,7.62,6.406,6.406,0,0,1,1.342,4.5,6.45,6.45,0,0,1,2.23,1.2,18.692,18.692,0,0,0,8.216,6.045,18.243,18.243,0,0,0,15.76,8.06a6.42,6.42,0,0,1-.172-1.494,6.324,6.324,0,0,1,1.924-4.641,6.568,6.568,0,0,1,9.434.147A13.076,13.076,0,0,0,31.112.477,6.347,6.347,0,0,1,28.229,4.11,13.12,13.12,0,0,0,32,3.079Z"/></svg>